# xmcd
#
# Track frame offsets: 
#        150
#        12859
#        31381
#        44513
#        68399
#        83545
#        101735
#        114260
#        134927
#        153929
#
# Disc length: 2264 seconds
#
# Revision: 0
# Processed by: cddbd v1.5.2PL0 Copyright (c) Steve Scherf et al.
# Submitted via: ExactAudioCopyFreeDBPlugin 1.0
#
DISCID=7708d60a
DTITLE=Zenit Blues Band - Noch besser
DYEAR=2018
DGENRE=Blues
TTITLE0=Sie hat alles
TTITLE1=Premium Pils
TTITLE2=Nachts um halb vier
TTITLE3=Es ist aus und vorbei
TTITLE4=Wir beide
TTITLE5=Darlehn
TTITLE6=Wo sind die Jahre
TTITLE7=Der Weinbrand Blues
TTITLE8=Mach Dir keine Sorgen
TTITLE9=Immer wieder neu
EXTD=
EXTT0=
EXTT1=
EXTT2=
EXTT3=
EXTT4=
EXTT5=
EXTT6=
EXTT7=
EXTT8=
EXTT9=
PLAYORDER=
